<?xml version="1.0" encoding="UTF-8" standalone="no"?>
<svg
   xmlns:dc="http://purl.org/dc/elements/1.1/"
   xmlns:cc="http://creativecommons.org/ns#"
   xmlns:rdf="http://www.w3.org/1999/02/22-rdf-syntax-ns#"
   xmlns:svg="http://www.w3.org/2000/svg"
   xmlns="http://www.w3.org/2000/svg"
   xmlns:sodipodi="http://sodipodi.sourceforge.net/DTD/sodipodi-0.dtd"
   xmlns:inkscape="http://www.inkscape.org/namespaces/inkscape"
   sodipodi:docname="framework showcase 2.svg"
   inkscape:version="1.0 (4035a4f, 2020-05-01)"
   id="svg5582"
   version="1.1"
   viewBox="0 0 211.66667 158.75"
   height="600"
   width="800">
  <defs
     id="defs5576" />
  <sodipodi:namedview
     inkscape:window-maximized="0"
     inkscape:window-y="25"
     inkscape:window-x="0"
     inkscape:window-height="795"
     inkscape:window-width="1252"
     units="px"
     showgrid="false"
     inkscape:document-rotation="0"
     inkscape:current-layer="layer1"
     inkscape:document-units="px"
     inkscape:cy="374.28571"
     inkscape:cx="742.85714"
     inkscape:zoom="0.35"
     inkscape:pageshadow="2"
     inkscape:pageopacity="0.0"
     borderopacity="1.0"
     bordercolor="#666666"
     pagecolor="#ffffff"
     id="base" />
  <metadata
     id="metadata5579">
    <rdf:RDF>
      <cc:Work
         rdf:about="">
        <dc:format>image/svg+xml</dc:format>
        <dc:type
           rdf:resource="http://purl.org/dc/dcmitype/StillImage" />
        <dc:title></dc:title>
      </cc:Work>
    </rdf:RDF>
  </metadata>
  <g
     id="layer1"
     inkscape:groupmode="layer"
     inkscape:label="Layer 1">
    <rect
       y="1.110223e-16"
       x="1.110223e-16"
       height="158.75"
       width="211.66667"
       id="rect7873"
       style="opacity:1;fill:#b5eaea;fill-opacity:1;stroke:none;stroke-width:6.35;stroke-linecap:round;stroke-linejoin:round;stroke-opacity:0;paint-order:stroke fill markers" />
    <g
       transform="matrix(0.4484455,0,0,0.44830606,108.16858,45.824095)"
       id="g6849">
      <rect
         ry="6.3499999"
         style="opacity:1;fill:#ffffff;stroke:none;stroke-width:2;stroke-linecap:round;stroke-linejoin:round;stroke-miterlimit:4;stroke-dasharray:none;stroke-opacity:1"
         id="rect847-1"
         width="186.74214"
         height="143.18335"
         x="11.677032"
         y="3.247613" />
      <rect
         y="3.247613"
         x="11.677054"
         height="143.18335"
         width="186.74214"
         id="rect847"
         style="opacity:0.5;fill:#000000;stroke:#000000;stroke-width:2;stroke-linecap:round;stroke-linejoin:round;stroke-miterlimit:4;stroke-dasharray:none;stroke-opacity:1"
         ry="6.3499999" />
      <rect
         y="91.018158"
         x="31.047461"
         height="48.391346"
         width="148.27109"
         id="rect849"
         style="opacity:0.5;fill:#000000;stroke:#000000;stroke-width:2;stroke-opacity:1"
         ry="3.175" />
      <rect
         y="87.772797"
         x="182.46745"
         height="50.953842"
         width="16.028847"
         id="rect853"
         style="opacity:0.5;fill:#000000;stroke:#000000;stroke-width:1.96282;stroke-opacity:1" />
      <rect
         y="87.793159"
         x="12.096152"
         height="50.91309"
         width="15.988087"
         id="rect855"
         style="opacity:0.5;fill:#000000;stroke:#000000;stroke-width:2.00358;stroke-opacity:1" />
      <rect
         y="25.281"
         x="152.28816"
         height="37.708267"
         width="13.895764"
         id="rect857"
         style="opacity:0.5;fill:#000000;stroke:#000000;stroke-width:1.97923;stroke-opacity:1"
         ry="0.26458332" />
      <rect
         y="25.278589"
         x="124.28574"
         height="37.713055"
         width="13.900547"
         id="rect859"
         style="opacity:0.5;fill:#000000;stroke:#000000;stroke-width:1.97445;stroke-opacity:1"
         ry="0.26458332" />
      <rect
         y="66.646553"
         x="63.974548"
         height="17.0063"
         width="51.402142"
         id="rect861"
         style="opacity:0.5;fill:#000000;stroke:#000000;stroke-width:2.0437;stroke-opacity:1"
         ry="0.26458332" />
      <rect
         y="71.963539"
         x="173.94588"
         height="12.905671"
         width="20.130674"
         id="rect865"
         style="opacity:0.5;fill:#000000;stroke:#000000;stroke-width:2.09433;stroke-opacity:1"
         ry="0.26458332" />
      <path
         sodipodi:nodetypes="ccccsccccscsc"
         d="m 49.965374,22.831971 5.410042,7.687462 c -0.191403,0.96493 -7.122401,12.164904 -5.692193,15.978791 1e-5,9.591818 8.682402,17.367496 19.392614,17.367414 10.710011,-1.74e-4 19.392088,-7.775776 19.392099,-17.367414 1.8e-5,-1.057167 0.205337,-3.155738 -0.0089,-4.195355 L 88.145988,22.831971 Z m 17.492473,10.10119 c 7.4012,2.11e-4 13.400889,5.407612 13.400733,12.077814 -1.59e-4,6.67 -5.999755,12.077089 -13.400733,12.0773 -7.401179,4.5e-5 -13.401091,-5.407117 -13.40125,-12.0773 -1.56e-4,-6.670384 5.999848,-12.077859 13.40125,-12.077814 z"
         style="opacity:0.5;fill:#000000;stroke:#000000;stroke-width:2.1069;stroke-opacity:1"
         id="path867" />
      <ellipse
         ry="7.2373061"
         rx="7.1314187"
         cy="44.746254"
         cx="67.563484"
         id="path883"
         style="opacity:0.5;fill:#000000;stroke:#000000;stroke-width:2.34969;stroke-opacity:1" />
      <rect
         y="45.471947"
         x="12.108268"
         height="21.784687"
         width="21.784687"
         id="rect927"
         style="opacity:0.5;fill:#000000;fill-opacity:1;stroke:#000000;stroke-width:2.02781;stroke-miterlimit:4;stroke-dasharray:none;stroke-opacity:1" />
      <rect
         style="opacity:0.5;fill:#000000;fill-opacity:1;stroke:#000000;stroke-width:2.02781;stroke-miterlimit:4;stroke-dasharray:none;stroke-opacity:1"
         id="rect927-7"
         width="21.784687"
         height="21.784687"
         x="12.108268"
         y="21.130289" />
      <rect
         style="opacity:0.5;fill:#000000;stroke:#000000;stroke-width:2.02781;stroke-miterlimit:4;stroke-dasharray:none;stroke-opacity:1"
         id="rect927-0"
         width="21.784687"
         height="21.784685"
         x="176.31245"
         y="45.471947" />
      <rect
         y="21.130289"
         x="176.0658"
         height="21.784685"
         width="21.784687"
         id="rect927-0-0"
         style="opacity:0.5;fill:#000000;stroke:#000000;stroke-width:2.02781;stroke-miterlimit:4;stroke-dasharray:none;stroke-opacity:1" />
      <path
         id="path870"
         style="opacity:0.5;fill:#000000;stroke:#000000;stroke-width:2.11667;stroke-miterlimit:4;stroke-dasharray:none;stroke-opacity:1"
         d="m 48.665199,8.210121 v 4.49792 h 33.902803 13.764009 v 0 c 8.776739,1.74279 19.073489,8.86207 19.317689,15.885953 -5e-5,0.0322 -2.3e-4,0.0644 -5.3e-4,0.0966 l 5.3e-4,-0.0966 -5.3e-4,0.0966 0.22247,30.054949 h 4.85664 l 0.0203,-30.054929 h -5.3e-4 c 2.6e-4,-0.0322 5.3e-4,-0.0644 5.3e-4,-0.0966 C 120.74832,17.593741 110.9466,8.583841 98.615572,8.249001 v -0.01 h -0.69505 z"
         sodipodi:nodetypes="cccccccccccccccccc" />
      <path
         sodipodi:nodetypes="ccccccccccccccccccc"
         d="m 48.665199,15.353871 v 4.90055 l 29.452051,0.11678 h 12.588852 2.08862 v -0.0426 c 10.478318,0.11811 15.902588,4.52067 15.579728,13.259052 -5e-5,0.0283 -2.2e-4,0.0565 -5.3e-4,0.0848 l 5.3e-4,-0.0848 -5.3e-4,0.0848 0.20348,25.073089 h 4.44198 l 0.0186,-25.073049 h -5.2e-4 c 2.3e-4,-0.0282 5.2e-4,-0.0565 5.2e-4,-0.0848 C 112.87625,20.227791 102.77304,15.879941 92.159024,15.353871 v 0 0 z"
         style="opacity:0.5;fill:#000000;stroke:#000000;stroke-width:2.11667;stroke-miterlimit:4;stroke-dasharray:none;stroke-opacity:1"
         id="path870-7-3-2" />
      <rect
         style="opacity:0.25;fill:#000000;stroke:#000000;stroke-width:2.11667;stroke-linejoin:round;paint-order:stroke fill markers"
         id="rect2178"
         width="138.3237"
         height="78.440804"
         x="35.622192"
         y="6.4284143"
         ry="11.999992" />
    </g>
    <g
       transform="matrix(0.44318675,0,0,0.44833727,-10.966648,64.462448)"
       id="g7759">
      <rect
         y="-38.329758"
         x="59.660324"
         height="143.18335"
         width="186.74214"
         id="rect847-8-1"
         style="opacity:1;fill:#ffffff;stroke:#000000;stroke-width:2;stroke-linecap:round;stroke-linejoin:round;stroke-miterlimit:4;stroke-dasharray:none;stroke-opacity:1"
         ry="6.3499999" />
      <rect
         ry="6.3499999"
         style="opacity:0.5;fill:#000000;stroke:#000000;stroke-width:2;stroke-linecap:round;stroke-linejoin:round;stroke-miterlimit:4;stroke-dasharray:none;stroke-opacity:1"
         id="rect847-8"
         width="186.74214"
         height="143.18335"
         x="59.660343"
         y="-38.329758" />
      <rect
         ry="3.175"
         style="opacity:0.5;fill:#000000;stroke:#000000;stroke-width:2;stroke-opacity:1"
         id="rect849-9"
         width="148.27109"
         height="48.391346"
         x="79.030754"
         y="49.440781" />
      <rect
         style="opacity:0.5;fill:#000000;stroke:#000000;stroke-width:1.96282;stroke-opacity:1"
         id="rect853-8"
         width="16.028847"
         height="50.953842"
         x="230.45074"
         y="46.195419" />
      <rect
         style="opacity:0.5;fill:#000000;stroke:#000000;stroke-width:2.00358;stroke-opacity:1"
         id="rect855-99"
         width="15.988087"
         height="50.91309"
         x="60.079445"
         y="46.21579" />
      <rect
         ry="0.26458332"
         style="opacity:0.5;fill:#000000;stroke:#000000;stroke-width:1.97923;stroke-opacity:1"
         id="rect857-9"
         width="13.895764"
         height="37.708267"
         x="200.27144"
         y="-16.296373" />
      <rect
         ry="0.26458332"
         style="opacity:0.5;fill:#000000;stroke:#000000;stroke-width:1.97445;stroke-opacity:1"
         id="rect859-3"
         width="13.900547"
         height="37.713055"
         x="172.26904"
         y="-16.298784" />
      <rect
         ry="0.26458332"
         style="opacity:0.5;fill:#000000;stroke:#000000;stroke-width:2.0437;stroke-opacity:1"
         id="rect861-7"
         width="51.402142"
         height="17.0063"
         x="111.95785"
         y="25.069181" />
      <rect
         ry="0.26458332"
         style="opacity:0.5;fill:#000000;stroke:#000000;stroke-width:2.09433;stroke-opacity:1"
         id="rect865-1"
         width="20.130674"
         height="12.905671"
         x="221.92918"
         y="30.386168" />
      <path
         id="path867-1"
         style="opacity:0.5;fill:#000000;stroke:#000000;stroke-width:2.1069;stroke-opacity:1"
         d="m 97.94867,-18.745402 5.41004,7.687466 c -0.1914,0.96493 -7.1224,12.164904 -5.692192,15.978791 1.1e-5,9.591818 8.682402,17.367496 19.392612,17.367414 10.71001,-1.75e-4 19.39209,-7.775776 19.3921,-17.367414 2e-5,-1.057167 0.20534,-3.155738 -0.009,-4.19535496 L 136.12928,-18.745402 Z m 17.49247,10.101194 c 7.4012,2.11e-4 13.40089,5.407612 13.40074,12.077813 -1.6e-4,6.670001 -5.99976,12.077089 -13.40074,12.077301 -7.40118,4.5e-5 -13.40109,-5.407118 -13.40125,-12.077301 -1.5e-4,-6.670384 5.99985,-12.077858 13.40125,-12.077813 z"
         sodipodi:nodetypes="ccccsccccscsc" />
      <ellipse
         style="opacity:0.5;fill:#000000;stroke:#000000;stroke-width:2.34969;stroke-opacity:1"
         id="path883-0"
         cx="115.54678"
         cy="3.1688833"
         rx="7.1314187"
         ry="7.2373061" />
      <rect
         style="opacity:0.5;fill:#000000;fill-opacity:1;stroke:#000000;stroke-width:2.02781;stroke-miterlimit:4;stroke-dasharray:none;stroke-opacity:1"
         id="rect927-95"
         width="21.784687"
         height="21.784687"
         x="60.09156"
         y="3.8945761" />
      <rect
         y="-20.447084"
         x="60.09156"
         height="21.784687"
         width="21.784687"
         id="rect927-7-2"
         style="opacity:0.5;fill:#000000;fill-opacity:1;stroke:#000000;stroke-width:2.02781;stroke-miterlimit:4;stroke-dasharray:none;stroke-opacity:1" />
      <rect
         y="3.8945761"
         x="224.29573"
         height="21.784685"
         width="21.784687"
         id="rect927-0-9"
         style="opacity:0.5;fill:#000000;stroke:#000000;stroke-width:2.02781;stroke-miterlimit:4;stroke-dasharray:none;stroke-opacity:1" />
      <rect
         style="opacity:0.5;fill:#000000;stroke:#000000;stroke-width:2.02781;stroke-miterlimit:4;stroke-dasharray:none;stroke-opacity:1"
         id="rect927-0-0-3"
         width="21.784687"
         height="21.784685"
         x="224.04907"
         y="-20.447084" />
      <path
         sodipodi:nodetypes="cccccccccccccccccc"
         d="m 96.648491,-33.367247 v 4.49792 h 33.902809 13.76401 v 0 c 8.77674,1.74279 19.07349,8.86207 19.31769,15.88595 -5e-5,0.0322 -2.3e-4,0.0644 -5.3e-4,0.0966 l 5.3e-4,-0.0966 -5.3e-4,0.0966 0.22247,30.054951 h 4.85664 l 0.0203,-30.054931 h -5.3e-4 c 2.7e-4,-0.0322 5.3e-4,-0.0644 5.3e-4,-0.0966 -2.6e-4,-11.00027 -9.80198,-20.01017 -22.13301,-20.34501 v -0.01 h -0.69506 z"
         style="opacity:0.5;fill:#000000;stroke:#000000;stroke-width:2.11667;stroke-miterlimit:4;stroke-dasharray:none;stroke-opacity:1"
         id="path870-7" />
      <path
         id="path870-7-3-2-0"
         style="opacity:0.5;fill:#000000;stroke:#000000;stroke-width:2.11667;stroke-miterlimit:4;stroke-dasharray:none;stroke-opacity:1"
         d="m 96.648491,-26.223497 v 4.90055 l 29.452059,0.11678 h 12.58884 2.08863 v -0.0426 c 10.47832,0.11811 15.90259,4.52067 15.57973,13.25905 -5e-5,0.0283 -2.2e-4,0.0565 -5.3e-4,0.0848 l 5.3e-4,-0.0848 -5.3e-4,0.0848 0.20348,25.073092 h 4.44198 l 0.0186,-25.073052 h -5.3e-4 c 2.3e-4,-0.0282 5.3e-4,-0.0565 5.3e-4,-0.0848 -0.16173,-13.3599 -10.26494,-17.70775 -20.87896,-18.23382 v 0 0 z"
         sodipodi:nodetypes="ccccccccccccccccccc" />
      <g
         id="g1572"
         transform="translate(-125.80105,-232.18555)"
         style="opacity:0.25;fill:#ffffff">
        <rect
           ry="6.3499999"
           style="opacity:0.5;fill:#ffffff;stroke:#000000;stroke-width:2;stroke-linecap:round;stroke-linejoin:round;stroke-miterlimit:4;stroke-dasharray:none;stroke-opacity:1"
           id="rect847-2"
           width="186.74214"
           height="143.18335"
           x="183.23291"
           y="193.85577" />
        <rect
           ry="3.175"
           style="opacity:0.5;fill:#ffffff;stroke:#000000;stroke-width:2;stroke-opacity:1"
           id="rect849-0"
           width="148.27109"
           height="48.391346"
           x="202.60333"
           y="281.62631" />
        <rect
           style="opacity:0.5;fill:#ffffff;stroke:#000000;stroke-width:1.96282;stroke-opacity:1"
           id="rect853-3"
           width="16.028847"
           height="50.953842"
           x="354.02332"
           y="278.38095" />
        <rect
           style="opacity:0.5;fill:#ffffff;stroke:#000000;stroke-width:2.00358;stroke-opacity:1"
           id="rect855-9"
           width="15.988087"
           height="50.91309"
           x="183.65202"
           y="278.40134" />
        <rect
           ry="0.26458332"
           style="opacity:0.5;fill:#ffffff;stroke:#000000;stroke-width:1.97923;stroke-opacity:1"
           id="rect857-2"
           width="13.895764"
           height="37.708267"
           x="323.84402"
           y="215.88916" />
        <rect
           ry="0.26458332"
           style="opacity:0.5;fill:#ffffff;stroke:#000000;stroke-width:1.97445;stroke-opacity:1"
           id="rect859-0"
           width="13.900546"
           height="37.713051"
           x="295.84161"
           y="215.88675" />
        <rect
           ry="0.26458332"
           style="opacity:0.5;fill:#ffffff;stroke:#000000;stroke-width:2.0437;stroke-opacity:1"
           id="rect861-9"
           width="51.402138"
           height="17.0063"
           x="235.53041"
           y="257.25473" />
        <rect
           ry="0.26458332"
           style="opacity:0.5;fill:#ffffff;stroke:#000000;stroke-width:2.09433;stroke-opacity:1"
           id="rect865-4"
           width="20.130672"
           height="12.905671"
           x="345.50174"
           y="262.57172" />
        <path
           id="path867-0"
           style="opacity:0.5;fill:#ffffff;stroke:#000000;stroke-width:2.1069;stroke-opacity:1"
           d="m 221.52124,213.44014 5.41004,7.68746 c -0.1914,0.96493 -7.1224,12.16491 -5.69219,15.97879 1e-5,9.59182 8.6824,17.3675 19.39261,17.36742 10.71001,-1.8e-4 19.39209,-7.77578 19.3921,-17.36742 2e-5,-1.05716 0.20534,-3.15573 -0.009,-4.19535 l -0.31305,-19.4709 z m 17.49247,10.10119 c 7.4012,2.1e-4 13.40089,5.40761 13.40074,12.07781 -1.6e-4,6.67001 -5.99976,12.07709 -13.40074,12.07731 -7.40118,4e-5 -13.40109,-5.40712 -13.40125,-12.07731 -1.5e-4,-6.67038 5.99985,-12.07785 13.40125,-12.07781 z"
           sodipodi:nodetypes="ccccsccccscsc" />
        <ellipse
           style="opacity:0.5;fill:#ffffff;stroke:#000000;stroke-width:2.34969;stroke-opacity:1"
           id="path883-6"
           cx="239.11935"
           cy="235.35442"
           rx="7.1314187"
           ry="7.2373061" />
        <rect
           style="opacity:0.5;fill:#ffffff;fill-opacity:1;stroke:#000000;stroke-width:2.02781;stroke-miterlimit:4;stroke-dasharray:none;stroke-opacity:1"
           id="rect927-9"
           width="21.784687"
           height="21.784687"
           x="183.66414"
           y="236.08011" />
        <rect
           y="211.73845"
           x="183.66414"
           height="21.784687"
           width="21.784687"
           id="rect927-7-4"
           style="opacity:0.5;fill:#ffffff;fill-opacity:1;stroke:#000000;stroke-width:2.02781;stroke-miterlimit:4;stroke-dasharray:none;stroke-opacity:1" />
        <rect
           y="236.08011"
           x="347.86832"
           height="21.784685"
           width="21.784687"
           id="rect927-0-8"
           style="opacity:0.5;fill:#ffffff;stroke:#000000;stroke-width:2.02781;stroke-miterlimit:4;stroke-dasharray:none;stroke-opacity:1" />
        <rect
           style="opacity:0.5;fill:#ffffff;stroke:#000000;stroke-width:2.02781;stroke-miterlimit:4;stroke-dasharray:none;stroke-opacity:1"
           id="rect927-0-0-8"
           width="21.784687"
           height="21.784685"
           x="347.62167"
           y="211.73845" />
        <path
           sodipodi:nodetypes="cccccccccccccccccc"
           d="m 220.22106,198.81829 v 4.49792 h 33.90281 13.76401 v 0 c 8.77674,1.74279 19.07349,8.86207 19.31769,15.88595 -5e-5,0.0322 -2.3e-4,0.0644 -5.3e-4,0.0966 l 5.3e-4,-0.0966 -5.3e-4,0.0966 0.22247,30.05495 h 4.85664 l 0.0203,-30.05492 h -5.2e-4 c 2.5e-4,-0.0322 5.2e-4,-0.0644 5.2e-4,-0.0966 -2.5e-4,-11.00027 -9.80197,-20.01017 -22.133,-20.34501 v -0.01 h -0.69505 z"
           style="opacity:0.5;fill:#ffffff;stroke:#000000;stroke-width:2.11667;stroke-miterlimit:4;stroke-dasharray:none;stroke-opacity:1"
           id="path870-6" />
        <path
           id="path870-7-3-2-6"
           style="opacity:0.5;fill:#ffffff;stroke:#000000;stroke-width:2.11667;stroke-miterlimit:4;stroke-dasharray:none;stroke-opacity:1"
           d="m 220.22106,205.96204 v 4.90055 l 29.45206,0.11678 h 12.58885 2.08862 v -0.0426 c 10.47832,0.11811 15.90259,4.52067 15.57973,13.25905 -5e-5,0.0283 -2.2e-4,0.0565 -5.3e-4,0.0848 l 5.3e-4,-0.0848 -5.3e-4,0.0848 0.20348,25.07309 h 4.44198 l 0.0186,-25.07305 h -5.3e-4 c 2.3e-4,-0.0282 5.3e-4,-0.0565 5.3e-4,-0.0848 -0.16173,-13.3599 -10.26494,-17.70775 -20.87896,-18.23382 v 0 0 z"
           sodipodi:nodetypes="ccccccccccccccccccc" />
      </g>
      <rect
         ry="11.999992"
         y="-35.14896"
         x="83.076302"
         height="78.440804"
         width="138.3237"
         id="rect2178-9"
         style="opacity:0.25;fill:#000000;stroke:none;stroke-width:2.11667;stroke-linejoin:round;stroke-opacity:0;paint-order:stroke fill markers" />
    </g>
  </g>
</svg>
