<?xml version="1.0" encoding="UTF-8" standalone="no"?>
<svg
   xmlns:dc="http://purl.org/dc/elements/1.1/"
   xmlns:cc="http://creativecommons.org/ns#"
   xmlns:rdf="http://www.w3.org/1999/02/22-rdf-syntax-ns#"
   xmlns:svg="http://www.w3.org/2000/svg"
   xmlns="http://www.w3.org/2000/svg"
   xmlns:sodipodi="http://sodipodi.sourceforge.net/DTD/sodipodi-0.dtd"
   xmlns:inkscape="http://www.inkscape.org/namespaces/inkscape"
   width="1200"
   height="1200"
   viewBox="0 0 317.49999 317.50001"
   version="1.1"
   id="svg8"
   inkscape:version="1.0 (4035a4f, 2020-05-01)"
   sodipodi:docname="framework2.svg">
  <defs
     id="defs2" />
  <sodipodi:namedview
     id="base"
     pagecolor="#ffffff"
     bordercolor="#666666"
     borderopacity="1.0"
     inkscape:pageopacity="0.0"
     inkscape:pageshadow="2"
     inkscape:zoom="0.61499145"
     inkscape:cx="429.66121"
     inkscape:cy="802.43443"
     inkscape:document-units="px"
     inkscape:current-layer="layer1"
     inkscape:document-rotation="0"
     showgrid="false"
     units="px"
     showguides="true"
     inkscape:window-width="1440"
     inkscape:window-height="795"
     inkscape:window-x="0"
     inkscape:window-y="25"
     inkscape:window-maximized="1" />
  <metadata
     id="metadata5">
    <rdf:RDF>
      <cc:Work
         rdf:about="">
        <dc:format>image/svg+xml</dc:format>
        <dc:type
           rdf:resource="http://purl.org/dc/dcmitype/StillImage" />
        <dc:title />
      </cc:Work>
    </rdf:RDF>
  </metadata>
  <g
     inkscape:label="Layer 1"
     inkscape:groupmode="layer"
     id="layer1">
    <rect
       ry="6.3499999"
       style="opacity:0.5;fill:#000000;stroke:#000000;stroke-width:2;stroke-linecap:round;stroke-linejoin:round;stroke-miterlimit:4;stroke-dasharray:none;stroke-opacity:1"
       id="rect847"
       width="186.74214"
       height="143.18335"
       x="60.378521"
       y="106.95624" />
    <rect
       ry="3.175"
       style="opacity:0.5;fill:#000000;stroke:#000000;stroke-width:2;stroke-opacity:1"
       id="rect849"
       width="148.27109"
       height="48.391346"
       x="79.748932"
       y="194.72678" />
    <rect
       style="opacity:0.5;fill:#000000;stroke:#000000;stroke-width:1.96282;stroke-opacity:1"
       id="rect853"
       width="16.028847"
       height="50.953842"
       x="231.16891"
       y="191.48141" />
    <rect
       style="opacity:0.5;fill:#000000;stroke:#000000;stroke-width:2.00358;stroke-opacity:1"
       id="rect855"
       width="15.988087"
       height="50.91309"
       x="60.797623"
       y="191.50179" />
    <rect
       ry="0.26458332"
       style="opacity:0.5;fill:#000000;stroke:#000000;stroke-width:1.97923;stroke-opacity:1"
       id="rect857"
       width="13.895764"
       height="37.708267"
       x="200.98962"
       y="128.98962" />
    <rect
       ry="0.26458332"
       style="opacity:0.5;fill:#000000;stroke:#000000;stroke-width:1.97445;stroke-opacity:1"
       id="rect859"
       width="13.900546"
       height="37.713051"
       x="172.98721"
       y="128.98721" />
    <rect
       ry="0.26458332"
       style="opacity:0.5;fill:#000000;stroke:#000000;stroke-width:2.0437;stroke-opacity:1"
       id="rect861"
       width="51.402138"
       height="17.0063"
       x="112.67602"
       y="170.35518" />
    <rect
       ry="0.26458332"
       style="opacity:0.5;fill:#000000;stroke:#000000;stroke-width:2.09433;stroke-opacity:1"
       id="rect865"
       width="20.130672"
       height="12.905671"
       x="222.64735"
       y="175.67216" />
    <path
       id="path867"
       style="opacity:0.5;fill:#000000;stroke:#000000;stroke-width:7.96309;stroke-opacity:1"
       d="m 372.91406,478.26367 20.4474,29.05499 c -0.72341,3.64698 -26.91931,45.97759 -21.5138,60.39228 4e-5,36.25254 32.81538,65.64093 73.29492,65.64062 40.47878,-6.6e-4 73.29293,-29.38876 73.29297,-65.64062 7e-5,-3.99559 0.77608,-11.9272 -0.0335,-15.85646 l -1.18331,-73.59081 z m 66.11328,38.17774 c 27.97304,8e-4 50.64903,20.43822 50.64844,45.64843 -6e-4,25.20945 -22.67624,45.64569 -50.64844,45.64649 -27.97296,1.7e-4 -50.64979,-20.43635 -50.65039,-45.64649 -5.9e-4,-25.2109 22.67659,-45.6486 50.65039,-45.64843 z"
       sodipodi:nodetypes="ccccsccccscsc"
       transform="scale(0.26458333)" />
    <ellipse
       style="opacity:0.5;fill:#000000;stroke:#000000;stroke-width:2.34969;stroke-opacity:1"
       id="path883"
       cx="116.26495"
       cy="148.45488"
       rx="7.1314187"
       ry="7.2373061" />
    <rect
       style="opacity:0.5;fill:#000000;stroke:#000000;stroke-width:2.02781;stroke-miterlimit:4;stroke-dasharray:none;stroke-opacity:1;fill-opacity:1"
       id="rect927"
       width="21.784687"
       height="21.784687"
       x="60.809738"
       y="149.18057" />
    <rect
       y="124.83891"
       x="60.809738"
       height="21.784687"
       width="21.784687"
       id="rect927-7"
       style="opacity:0.5;fill:#000000;stroke:#000000;stroke-width:2.02781;stroke-miterlimit:4;stroke-dasharray:none;stroke-opacity:1;fill-opacity:1" />
    <rect
       y="149.18057"
       x="225.01392"
       height="21.784685"
       width="21.784687"
       id="rect927-0"
       style="opacity:0.5;fill:#000000;stroke:#000000;stroke-width:2.02781;stroke-miterlimit:4;stroke-dasharray:none;stroke-opacity:1" />
    <rect
       style="opacity:0.5;fill:#000000;stroke:#000000;stroke-width:2.02781;stroke-miterlimit:4;stroke-dasharray:none;stroke-opacity:1"
       id="rect927-0-0"
       width="21.784687"
       height="21.784685"
       x="224.76726"
       y="124.83891" />
    <path
       sodipodi:nodetypes="cccccccccccccccccc"
       d="m 97.366667,111.91875 v 4.49792 h 33.902803 13.76401 v 0 c 8.77674,1.74279 19.07349,8.86207 19.31769,15.88595 -5e-5,0.0322 -2.3e-4,0.0644 -5.3e-4,0.0966 l 5.3e-4,-0.0966 -5.3e-4,0.0966 0.22247,30.05495 h 4.85664 l 0.0203,-30.05493 h -5.3e-4 c 2.6e-4,-0.0322 5.3e-4,-0.0644 5.3e-4,-0.0966 -2.6e-4,-11.00027 -9.80198,-20.01017 -22.13301,-20.34501 v -0.01 h -0.69505 z"
       style="opacity:0.5;fill:#000000;stroke:#000000;stroke-width:2.11667;stroke-miterlimit:4;stroke-dasharray:none;stroke-opacity:1"
       id="path870" />
    <path
       id="path870-7-3-2"
       style="opacity:0.5;fill:#000000;stroke:#000000;stroke-width:2.11667;stroke-miterlimit:4;stroke-dasharray:none;stroke-opacity:1"
       d="m 97.366667,119.0625 v 4.90055 l 29.452053,0.11678 h 12.58885 2.08862 v -0.0426 c 10.47832,0.11811 15.90259,4.52067 15.57973,13.25905 -5e-5,0.0283 -2.2e-4,0.0565 -5.3e-4,0.0848 l 5.3e-4,-0.0848 -5.3e-4,0.0848 0.20348,25.07309 h 4.44198 l 0.0186,-25.07305 h -5.2e-4 c 2.3e-4,-0.0282 5.2e-4,-0.0565 5.2e-4,-0.0848 -0.16173,-13.3599 -10.26494,-17.70775 -20.87896,-18.23382 v 0 0 z"
       sodipodi:nodetypes="ccccccccccccccccccc" />
    <rect
       ry="11.999992"
       y="110.13703"
       x="84.323662"
       height="78.440804"
       width="138.3237"
       id="rect2178"
       style="opacity:0.25;fill:#000000;stroke:#000000;stroke-width:2.11667;stroke-linejoin:round;paint-order:stroke fill markers" />
  </g>
</svg>
