<?xml version="1.0" encoding="UTF-8" standalone="no"?>
<svg
   xmlns:dc="http://purl.org/dc/elements/1.1/"
   xmlns:cc="http://creativecommons.org/ns#"
   xmlns:rdf="http://www.w3.org/1999/02/22-rdf-syntax-ns#"
   xmlns:svg="http://www.w3.org/2000/svg"
   xmlns="http://www.w3.org/2000/svg"
   xmlns:sodipodi="http://sodipodi.sourceforge.net/DTD/sodipodi-0.dtd"
   xmlns:inkscape="http://www.inkscape.org/namespaces/inkscape"
   sodipodi:docname="framework6.svg"
   inkscape:version="1.0 (4035a4f, 2020-05-01)"
   id="svg8"
   version="1.1"
   viewBox="0 0 317.49999 317.50001"
   height="1200"
   width="1200">
  <defs
     id="defs2" />
  <sodipodi:namedview
     inkscape:window-maximized="1"
     inkscape:window-y="25"
     inkscape:window-x="0"
     inkscape:window-height="795"
     inkscape:window-width="1440"
     showguides="true"
     units="px"
     showgrid="false"
     inkscape:document-rotation="0"
     inkscape:current-layer="layer1"
     inkscape:document-units="px"
     inkscape:cy="851.42064"
     inkscape:cx="553.42939"
     inkscape:zoom="0.62408822"
     inkscape:pageshadow="2"
     inkscape:pageopacity="0.0"
     borderopacity="1.0"
     bordercolor="#666666"
     pagecolor="#ffffff"
     id="base" />
  <metadata
     id="metadata5">
    <rdf:RDF>
      <cc:Work
         rdf:about="">
        <dc:format>image/svg+xml</dc:format>
        <dc:type
           rdf:resource="http://purl.org/dc/dcmitype/StillImage" />
        <dc:title />
      </cc:Work>
    </rdf:RDF>
  </metadata>
  <g
     id="layer1"
     inkscape:groupmode="layer"
     inkscape:label="Layer 1">
    <g
       transform="matrix(0.89723185,0.36141472,-0.51801705,0.62598866,99.145241,49.596598)"
       id="g2252">
      <path
         d="M 66.728521,106.95624 H 240.77066 c 3.5179,0 6.35,2.8321 6.35,6.35 v 130.48335 c 0,3.5179 -2.8321,6.35 -6.35,6.35 H 66.728521 c -3.5179,0 -6.35,-2.8321 -6.35,-6.35 V 113.30624 c 0,-3.5179 2.8321,-6.35 6.35,-6.35 z"
         style="opacity:0.5;fill:#000000;stroke:#000000;stroke-width:2;stroke-linecap:round;stroke-linejoin:round;stroke-miterlimit:4;stroke-dasharray:none;stroke-opacity:1"
         id="rect847" />
    </g>
    <path
       sodipodi:nodetypes="ccccccccccc"
       d="m 260.98251,209.75912 -66.68068,80.57958 c -1.82232,2.20216 -5.42411,3.11542 -8.07548,2.04742 l -159.388178,-64.1367 -1.967339,-3.37689 c -1.822328,2.20216 2.312633,10.218 4.964004,11.28601 l 157.979013,63.63591 c 2.65137,1.068 6.25316,0.15474 8.07548,-2.04742 l 67.59225,-81.68132 c 1.82234,-2.20217 2.26896,-9.47192 -0.3824,-10.53992 z"
       style="opacity:0.5;fill:#000000;stroke:none;stroke-width:1.73076;stroke-linecap:round;stroke-linejoin:round;stroke-miterlimit:4;stroke-dasharray:none;stroke-opacity:1"
       id="rect847-1" />
    <g
       transform="matrix(0.08544939,0.01591738,-0.02032373,0.06692326,134.72618,195.17962)"
       id="svgg">
      <path
         id="path0"
         d="M 106.018,31.362 C 71.441,49.714 69.424,52.578 68.083,85.225 66.631,120.578 62.993,126.963 35.335,142.7 6.532,159.087 5.714,160.629 5.714,198.571 c 0,37.943 0.818,39.485 29.621,55.872 27.697,15.759 31.295,22.097 32.757,57.695 1.339,32.604 4.489,36.88 40.545,55.038 25.228,12.704 32.656,12.521 59.196,-1.462 28.072,-14.79 36.765,-14.79 64.68,0 30.524,16.172 54.753,11.642 87.457,-16.352 l 10.789,-9.234 1.146,-27.921 c 1.463,-35.627 5.239,-42.398 31.744,-56.927 29.391,-16.111 30.637,-18.417 30.637,-56.709 0,-38.291 -1.246,-40.597 -30.637,-56.708 -26.505,-14.53 -30.281,-21.301 -31.744,-56.927 L 330.759,57.015 319.97,47.78 C 287.266,19.787 263.037,15.257 232.513,31.429 c -14.087,7.463 -25.285,11.428 -32.279,11.428 -6.974,0 -18.275,-3.986 -32.401,-11.428 -27.199,-14.33 -34.925,-14.338 -61.815,-0.067 m 114.306,57.225 c 106.987,19.967 129.313,161.31 32.938,208.528 C 146.507,349.42 39.132,232.489 105.43,136.128 131.208,98.661 175.687,80.256 220.324,88.587"
         stroke="none"
         fill="#000000"
         fill-rule="evenodd" />
    </g>
  </g>
</svg>
