<?xml version="1.0" encoding="UTF-8" standalone="no"?>
<svg
   xmlns:dc="http://purl.org/dc/elements/1.1/"
   xmlns:cc="http://creativecommons.org/ns#"
   xmlns:rdf="http://www.w3.org/1999/02/22-rdf-syntax-ns#"
   xmlns:svg="http://www.w3.org/2000/svg"
   xmlns="http://www.w3.org/2000/svg"
   xmlns:sodipodi="http://sodipodi.sourceforge.net/DTD/sodipodi-0.dtd"
   xmlns:inkscape="http://www.inkscape.org/namespaces/inkscape"
   sodipodi:docname="framework3.svg"
   inkscape:version="1.0 (4035a4f, 2020-05-01)"
   id="svg8"
   version="1.1"
   viewBox="0 0 317.49999 317.50001"
   height="1200"
   width="1200">
  <defs
     id="defs2" />
  <sodipodi:namedview
     inkscape:window-maximized="1"
     inkscape:window-y="25"
     inkscape:window-x="0"
     inkscape:window-height="795"
     inkscape:window-width="1440"
     showguides="true"
     units="px"
     showgrid="false"
     inkscape:document-rotation="0"
     inkscape:current-layer="layer1"
     inkscape:document-units="px"
     inkscape:cy="543.89425"
     inkscape:cx="471.93822"
     inkscape:zoom="0.61499145"
     inkscape:pageshadow="2"
     inkscape:pageopacity="0.0"
     borderopacity="1.0"
     bordercolor="#666666"
     pagecolor="#ffffff"
     id="base" />
  <metadata
     id="metadata5">
    <rdf:RDF>
      <cc:Work
         rdf:about="">
        <dc:format>image/svg+xml</dc:format>
        <dc:type
           rdf:resource="http://purl.org/dc/dcmitype/StillImage" />
        <dc:title></dc:title>
      </cc:Work>
    </rdf:RDF>
  </metadata>
  <g
     id="layer1"
     inkscape:groupmode="layer"
     inkscape:label="Layer 1">
    <rect
       y="106.95624"
       x="60.378521"
       height="143.18335"
       width="186.74214"
       id="rect847"
       style="opacity:0.5;fill:#000000;stroke:#000000;stroke-width:2;stroke-linecap:round;stroke-linejoin:round;stroke-miterlimit:4;stroke-dasharray:none;stroke-opacity:1"
       ry="6.3499999" />
    <rect
       y="194.72678"
       x="79.748932"
       height="48.391346"
       width="148.27109"
       id="rect849"
       style="opacity:0.5;fill:#000000;stroke:#000000;stroke-width:2;stroke-opacity:1"
       ry="3.175" />
    <rect
       y="191.48141"
       x="231.16891"
       height="50.953842"
       width="16.028847"
       id="rect853"
       style="opacity:0.5;fill:#000000;stroke:#000000;stroke-width:1.96282;stroke-opacity:1" />
    <rect
       y="191.50179"
       x="60.797623"
       height="50.91309"
       width="15.988087"
       id="rect855"
       style="opacity:0.5;fill:#000000;stroke:#000000;stroke-width:2.00358;stroke-opacity:1" />
    <rect
       y="128.98962"
       x="200.98962"
       height="37.708267"
       width="13.895764"
       id="rect857"
       style="opacity:0.5;fill:#000000;stroke:#000000;stroke-width:1.97923;stroke-opacity:1"
       ry="0.26458332" />
    <rect
       y="128.98721"
       x="172.98721"
       height="37.713051"
       width="13.900546"
       id="rect859"
       style="opacity:0.5;fill:#000000;stroke:#000000;stroke-width:1.97445;stroke-opacity:1"
       ry="0.26458332" />
    <rect
       y="170.35518"
       x="112.67602"
       height="17.0063"
       width="51.402138"
       id="rect861"
       style="opacity:0.5;fill:#000000;stroke:#000000;stroke-width:2.0437;stroke-opacity:1"
       ry="0.26458332" />
    <rect
       y="175.67216"
       x="222.64735"
       height="12.905671"
       width="20.130672"
       id="rect865"
       style="opacity:0.5;fill:#000000;stroke:#000000;stroke-width:2.09433;stroke-opacity:1"
       ry="0.26458332" />
    <path
       transform="scale(0.26458333)"
       sodipodi:nodetypes="ccccsccccscsc"
       d="m 372.91406,478.26367 20.4474,29.05499 c -0.72341,3.64698 -26.91931,45.97759 -21.5138,60.39228 4e-5,36.25254 32.81538,65.64093 73.29492,65.64062 40.47878,-6.6e-4 73.29293,-29.38876 73.29297,-65.64062 7e-5,-3.99559 0.77608,-11.9272 -0.0335,-15.85646 l -1.18331,-73.59081 z m 66.11328,38.17774 c 27.97304,8e-4 50.64903,20.43822 50.64844,45.64843 -6e-4,25.20945 -22.67624,45.64569 -50.64844,45.64649 -27.97296,1.7e-4 -50.64979,-20.43635 -50.65039,-45.64649 -5.9e-4,-25.2109 22.67659,-45.6486 50.65039,-45.64843 z"
       style="opacity:0.5;fill:#000000;stroke:#000000;stroke-width:7.96309;stroke-opacity:1"
       id="path867" />
    <ellipse
       ry="7.2373061"
       rx="7.1314187"
       cy="148.45488"
       cx="116.26495"
       id="path883"
       style="opacity:0.5;fill:#000000;stroke:#000000;stroke-width:2.34969;stroke-opacity:1" />
    <rect
       y="149.18057"
       x="60.809738"
       height="21.784687"
       width="21.784687"
       id="rect927"
       style="opacity:0.5;fill:#000000;stroke:#000000;stroke-width:2.02781;stroke-miterlimit:4;stroke-dasharray:none;stroke-opacity:1;fill-opacity:1" />
    <rect
       style="opacity:0.5;fill:#000000;stroke:#000000;stroke-width:2.02781;stroke-miterlimit:4;stroke-dasharray:none;stroke-opacity:1;fill-opacity:1"
       id="rect927-7"
       width="21.784687"
       height="21.784687"
       x="60.809738"
       y="124.83891" />
    <rect
       style="opacity:0.5;fill:#000000;stroke:#000000;stroke-width:2.02781;stroke-miterlimit:4;stroke-dasharray:none;stroke-opacity:1"
       id="rect927-0"
       width="21.784687"
       height="21.784685"
       x="225.01392"
       y="149.18057" />
    <rect
       y="124.83891"
       x="224.76726"
       height="21.784685"
       width="21.784687"
       id="rect927-0-0"
       style="opacity:0.5;fill:#000000;stroke:#000000;stroke-width:2.02781;stroke-miterlimit:4;stroke-dasharray:none;stroke-opacity:1" />
    <path
       id="path870"
       style="opacity:0.5;fill:#000000;stroke:#000000;stroke-width:2.11667;stroke-miterlimit:4;stroke-dasharray:none;stroke-opacity:1"
       d="m 97.366667,111.91875 v 4.49792 h 33.902803 13.76401 v 0 c 8.77674,1.74279 19.07349,8.86207 19.31769,15.88595 -5e-5,0.0322 -2.3e-4,0.0644 -5.3e-4,0.0966 l 5.3e-4,-0.0966 -5.3e-4,0.0966 0.22247,30.05495 h 4.85664 l 0.0203,-30.05493 h -5.3e-4 c 2.6e-4,-0.0322 5.3e-4,-0.0644 5.3e-4,-0.0966 -2.6e-4,-11.00027 -9.80198,-20.01017 -22.13301,-20.34501 v -0.01 h -0.69505 z"
       sodipodi:nodetypes="cccccccccccccccccc" />
    <path
       sodipodi:nodetypes="ccccccccccccccccccc"
       d="m 97.366667,119.0625 v 4.90055 l 29.452053,0.11678 h 12.58885 2.08862 v -0.0426 c 10.47832,0.11811 15.90259,4.52067 15.57973,13.25905 -5e-5,0.0283 -2.2e-4,0.0565 -5.3e-4,0.0848 l 5.3e-4,-0.0848 -5.3e-4,0.0848 0.20348,25.07309 h 4.44198 l 0.0186,-25.07305 h -5.2e-4 c 2.3e-4,-0.0282 5.2e-4,-0.0565 5.2e-4,-0.0848 -0.16173,-13.3599 -10.26494,-17.70775 -20.87896,-18.23382 v 0 0 z"
       style="opacity:0.5;fill:#000000;stroke:#000000;stroke-width:2.11667;stroke-miterlimit:4;stroke-dasharray:none;stroke-opacity:1"
       id="path870-7-3-2" />
    <g
       style="opacity:0.25;fill:#ffffff"
       transform="translate(-125.08288,-86.899551)"
       id="g1572">
      <rect
         y="193.85577"
         x="183.23291"
         height="143.18335"
         width="186.74214"
         id="rect847-2"
         style="opacity:0.5;fill:#ffffff;stroke:#000000;stroke-width:2;stroke-linecap:round;stroke-linejoin:round;stroke-miterlimit:4;stroke-dasharray:none;stroke-opacity:1"
         ry="6.3499999" />
      <rect
         y="281.62631"
         x="202.60333"
         height="48.391346"
         width="148.27109"
         id="rect849-0"
         style="opacity:0.5;fill:#ffffff;stroke:#000000;stroke-width:2;stroke-opacity:1"
         ry="3.175" />
      <rect
         y="278.38095"
         x="354.02332"
         height="50.953842"
         width="16.028847"
         id="rect853-3"
         style="opacity:0.5;fill:#ffffff;stroke:#000000;stroke-width:1.96282;stroke-opacity:1" />
      <rect
         y="278.40134"
         x="183.65202"
         height="50.91309"
         width="15.988087"
         id="rect855-9"
         style="opacity:0.5;fill:#ffffff;stroke:#000000;stroke-width:2.00358;stroke-opacity:1" />
      <rect
         y="215.88916"
         x="323.84402"
         height="37.708267"
         width="13.895764"
         id="rect857-2"
         style="opacity:0.5;fill:#ffffff;stroke:#000000;stroke-width:1.97923;stroke-opacity:1"
         ry="0.26458332" />
      <rect
         y="215.88675"
         x="295.84161"
         height="37.713051"
         width="13.900546"
         id="rect859-0"
         style="opacity:0.5;fill:#ffffff;stroke:#000000;stroke-width:1.97445;stroke-opacity:1"
         ry="0.26458332" />
      <rect
         y="257.25473"
         x="235.53041"
         height="17.0063"
         width="51.402138"
         id="rect861-9"
         style="opacity:0.5;fill:#ffffff;stroke:#000000;stroke-width:2.0437;stroke-opacity:1"
         ry="0.26458332" />
      <rect
         y="262.57172"
         x="345.50174"
         height="12.905671"
         width="20.130672"
         id="rect865-4"
         style="opacity:0.5;fill:#ffffff;stroke:#000000;stroke-width:2.09433;stroke-opacity:1"
         ry="0.26458332" />
      <path
         sodipodi:nodetypes="ccccsccccscsc"
         d="m 221.52124,213.44014 5.41004,7.68746 c -0.1914,0.96493 -7.1224,12.16491 -5.69219,15.97879 1e-5,9.59182 8.6824,17.3675 19.39261,17.36742 10.71001,-1.8e-4 19.39209,-7.77578 19.3921,-17.36742 2e-5,-1.05716 0.20534,-3.15573 -0.009,-4.19535 l -0.31305,-19.4709 z m 17.49247,10.10119 c 7.4012,2.1e-4 13.40089,5.40761 13.40074,12.07781 -1.6e-4,6.67001 -5.99976,12.07709 -13.40074,12.07731 -7.40118,4e-5 -13.40109,-5.40712 -13.40125,-12.07731 -1.5e-4,-6.67038 5.99985,-12.07785 13.40125,-12.07781 z"
         style="opacity:0.5;fill:#ffffff;stroke:#000000;stroke-width:2.1069;stroke-opacity:1"
         id="path867-0" />
      <ellipse
         ry="7.2373061"
         rx="7.1314187"
         cy="235.35442"
         cx="239.11935"
         id="path883-6"
         style="opacity:0.5;fill:#ffffff;stroke:#000000;stroke-width:2.34969;stroke-opacity:1" />
      <rect
         y="236.08011"
         x="183.66414"
         height="21.784687"
         width="21.784687"
         id="rect927-9"
         style="opacity:0.5;fill:#ffffff;fill-opacity:1;stroke:#000000;stroke-width:2.02781;stroke-miterlimit:4;stroke-dasharray:none;stroke-opacity:1" />
      <rect
         style="opacity:0.5;fill:#ffffff;fill-opacity:1;stroke:#000000;stroke-width:2.02781;stroke-miterlimit:4;stroke-dasharray:none;stroke-opacity:1"
         id="rect927-7-4"
         width="21.784687"
         height="21.784687"
         x="183.66414"
         y="211.73845" />
      <rect
         style="opacity:0.5;fill:#ffffff;stroke:#000000;stroke-width:2.02781;stroke-miterlimit:4;stroke-dasharray:none;stroke-opacity:1"
         id="rect927-0-8"
         width="21.784687"
         height="21.784685"
         x="347.86832"
         y="236.08011" />
      <rect
         y="211.73845"
         x="347.62167"
         height="21.784685"
         width="21.784687"
         id="rect927-0-0-8"
         style="opacity:0.5;fill:#ffffff;stroke:#000000;stroke-width:2.02781;stroke-miterlimit:4;stroke-dasharray:none;stroke-opacity:1" />
      <path
         id="path870-6"
         style="opacity:0.5;fill:#ffffff;stroke:#000000;stroke-width:2.11667;stroke-miterlimit:4;stroke-dasharray:none;stroke-opacity:1"
         d="m 220.22106,198.81829 v 4.49792 h 33.90281 13.76401 v 0 c 8.77674,1.74279 19.07349,8.86207 19.31769,15.88595 -5e-5,0.0322 -2.3e-4,0.0644 -5.3e-4,0.0966 l 5.3e-4,-0.0966 -5.3e-4,0.0966 0.22247,30.05495 h 4.85664 l 0.0203,-30.05492 h -5.2e-4 c 2.5e-4,-0.0322 5.2e-4,-0.0644 5.2e-4,-0.0966 -2.5e-4,-11.00027 -9.80197,-20.01017 -22.133,-20.34501 v -0.01 h -0.69505 z"
         sodipodi:nodetypes="cccccccccccccccccc" />
      <path
         sodipodi:nodetypes="ccccccccccccccccccc"
         d="m 220.22106,205.96204 v 4.90055 l 29.45206,0.11678 h 12.58885 2.08862 v -0.0426 c 10.47832,0.11811 15.90259,4.52067 15.57973,13.25905 -5e-5,0.0283 -2.2e-4,0.0565 -5.3e-4,0.0848 l 5.3e-4,-0.0848 -5.3e-4,0.0848 0.20348,25.07309 h 4.44198 l 0.0186,-25.07305 h -5.3e-4 c 2.3e-4,-0.0282 5.3e-4,-0.0565 5.3e-4,-0.0848 -0.16173,-13.3599 -10.26494,-17.70775 -20.87896,-18.23382 v 0 0 z"
         style="opacity:0.5;fill:#ffffff;stroke:#000000;stroke-width:2.11667;stroke-miterlimit:4;stroke-dasharray:none;stroke-opacity:1"
         id="path870-7-3-2-6" />
    </g>
    <rect
       style="opacity:0.25;fill:#000000;stroke:none;stroke-width:2.11667;stroke-linejoin:round;paint-order:stroke fill markers;stroke-opacity:0"
       id="rect2178"
       width="138.3237"
       height="78.440804"
       x="83.794479"
       y="110.13704"
       ry="11.999992" />
  </g>
</svg>
