<?xml version="1.0" encoding="UTF-8" standalone="no"?>
<svg
   xmlns:dc="http://purl.org/dc/elements/1.1/"
   xmlns:cc="http://creativecommons.org/ns#"
   xmlns:rdf="http://www.w3.org/1999/02/22-rdf-syntax-ns#"
   xmlns:svg="http://www.w3.org/2000/svg"
   xmlns="http://www.w3.org/2000/svg"
   xmlns:sodipodi="http://sodipodi.sourceforge.net/DTD/sodipodi-0.dtd"
   xmlns:inkscape="http://www.inkscape.org/namespaces/inkscape"
   width="1200"
   height="1200"
   viewBox="0 0 317.49999 317.50001"
   version="1.1"
   id="svg8"
   inkscape:version="1.0 (4035a4f, 2020-05-01)"
   sodipodi:docname="framework5.svg">
  <defs
     id="defs2" />
  <sodipodi:namedview
     id="base"
     pagecolor="#ffffff"
     bordercolor="#666666"
     borderopacity="1.0"
     inkscape:pageopacity="0.0"
     inkscape:pageshadow="2"
     inkscape:zoom="0.39750209"
     inkscape:cx="668.3369"
     inkscape:cy="449.13068"
     inkscape:document-units="px"
     inkscape:current-layer="g2252"
     inkscape:document-rotation="0"
     showgrid="false"
     units="px"
     showguides="true"
     inkscape:window-width="1440"
     inkscape:window-height="795"
     inkscape:window-x="0"
     inkscape:window-y="25"
     inkscape:window-maximized="1" />
  <metadata
     id="metadata5">
    <rdf:RDF>
      <cc:Work
         rdf:about="">
        <dc:format>image/svg+xml</dc:format>
        <dc:type
           rdf:resource="http://purl.org/dc/dcmitype/StillImage" />
        <dc:title></dc:title>
      </cc:Work>
    </rdf:RDF>
  </metadata>
  <g
     inkscape:label="Layer 1"
     inkscape:groupmode="layer"
     id="layer1">
    <g
       id="g2252"
       transform="matrix(0.89723185,0.36141472,-0.51801705,0.62598866,99.145241,48.324743)">
      <path
         id="rect847"
         style="opacity:0.5;fill:#000000;stroke:#000000;stroke-width:2;stroke-linecap:round;stroke-linejoin:round;stroke-miterlimit:4;stroke-dasharray:none;stroke-opacity:1"
         d="M 66.728521,106.95624 H 240.77066 c 3.5179,0 6.35,2.8321 6.35,6.35 v 130.48335 c 0,3.5179 -2.8321,6.35 -6.35,6.35 H 66.728521 c -3.5179,0 -6.35,-2.8321 -6.35,-6.35 V 113.30624 c 0,-3.5179 2.8321,-6.35 6.35,-6.35 z" />
      <path
         id="rect849"
         style="opacity:0.5;fill:#000000;stroke:#000000;stroke-width:2;stroke-opacity:1"
         d="M 82.923932,194.72678 H 224.84502 c 1.75895,0 3.175,1.41605 3.175,3.175 v 42.04134 c 0,1.75895 -1.41605,3.175 -3.175,3.175 H 82.923932 c -1.75895,0 -3.175,-1.41605 -3.175,-3.175 v -42.04134 c 0,-1.75895 1.41605,-3.175 3.175,-3.175 z" />
      <path
         id="rect853"
         style="opacity:0.5;fill:#000000;stroke:#000000;stroke-width:1.96282;stroke-opacity:1"
         d="m 231.16891,191.48141 h 16.02885 v 50.95385 h -16.02885 z" />
      <path
         id="rect855"
         style="opacity:0.5;fill:#000000;stroke:#000000;stroke-width:2.00358;stroke-opacity:1"
         d="m 60.797623,191.50179 h 15.988086 v 50.91309 H 60.797623 Z" />
      <path
         id="rect857"
         style="opacity:0.5;fill:#000000;stroke:#000000;stroke-width:1.97923;stroke-opacity:1"
         d="m 201.25421,128.98962 h 13.3666 c 0.14657,0 0.26458,0.11801 0.26458,0.26459 v 37.1791 c 0,0.14658 -0.11801,0.26458 -0.26458,0.26458 h -13.3666 c -0.14658,0 -0.26459,-0.118 -0.26459,-0.26458 v -37.1791 c 0,-0.14658 0.11801,-0.26459 0.26459,-0.26459 z" />
      <path
         id="rect859"
         style="opacity:0.5;fill:#000000;stroke:#000000;stroke-width:1.97445;stroke-opacity:1"
         d="m 173.2518,128.98721 h 13.37138 c 0.14658,0 0.26458,0.11801 0.26458,0.26459 v 37.18388 c 0,0.14658 -0.118,0.26458 -0.26458,0.26458 H 173.2518 c -0.14658,0 -0.26459,-0.118 -0.26459,-0.26458 V 129.2518 c 0,-0.14658 0.11801,-0.26459 0.26459,-0.26459 z" />
      <path
         id="rect861"
         style="opacity:0.5;fill:#000000;stroke:#000000;stroke-width:2.0437;stroke-opacity:1"
         d="m 112.9406,170.35518 h 50.87297 c 0.14658,0 0.26459,0.118 0.26459,0.26458 v 16.47714 c 0,0.14657 -0.11801,0.26458 -0.26459,0.26458 H 112.9406 c -0.14658,0 -0.26458,-0.11801 -0.26458,-0.26458 v -16.47714 c 0,-0.14658 0.118,-0.26458 0.26458,-0.26458 z" />
      <path
         id="rect865"
         style="opacity:0.5;fill:#000000;stroke:#000000;stroke-width:2.09433;stroke-opacity:1"
         d="m 222.91194,175.67216 h 19.6015 c 0.14658,0 0.26459,0.11801 0.26459,0.26459 v 12.3765 c 0,0.14658 -0.11801,0.26459 -0.26459,0.26459 h -19.6015 c -0.14658,0 -0.26459,-0.11801 -0.26459,-0.26459 v -12.3765 c 0,-0.14658 0.11801,-0.26459 0.26459,-0.26459 z" />
      <path
         transform="scale(0.26458333)"
         sodipodi:nodetypes="ccccsccccscsc"
         d="m 372.91406,478.26367 20.4474,29.05499 c -0.72341,3.64698 -26.91931,45.97759 -21.5138,60.39228 4e-5,36.25254 32.81538,65.64093 73.29492,65.64062 40.47878,-6.6e-4 73.29293,-29.38876 73.29297,-65.64062 7e-5,-3.99559 0.77608,-11.9272 -0.0335,-15.85646 l -1.18331,-73.59081 z m 66.11328,38.17774 c 27.97304,8e-4 50.64903,20.43822 50.64844,45.64843 -6e-4,25.20945 -22.67624,45.64569 -50.64844,45.64649 -27.97296,1.7e-4 -50.64979,-20.43635 -50.65039,-45.64649 -5.9e-4,-25.2109 22.67659,-45.6486 50.65039,-45.64843 z"
         style="opacity:0.5;fill:#000000;stroke:#000000;stroke-width:7.96309;stroke-opacity:1"
         id="path867" />
      <path
         id="path883"
         style="opacity:0.5;fill:#000000;stroke:#000000;stroke-width:2.34969;stroke-opacity:1"
         d="m 123.39637,148.45488 a 7.1314187,7.2373061 0 0 1 -7.13142,7.23731 7.1314187,7.2373061 0 0 1 -7.13142,-7.23731 7.1314187,7.2373061 0 0 1 7.13142,-7.23731 7.1314187,7.2373061 0 0 1 7.13142,7.23731" />
      <path
         id="rect927"
         style="opacity:0.5;fill:#000000;fill-opacity:1;stroke:#000000;stroke-width:2.02781;stroke-miterlimit:4;stroke-dasharray:none;stroke-opacity:1"
         d="m 60.809738,149.18057 h 21.784687 v 21.78469 H 60.809738 Z" />
      <path
         id="rect927-7"
         style="opacity:0.5;fill:#000000;fill-opacity:1;stroke:#000000;stroke-width:2.02781;stroke-miterlimit:4;stroke-dasharray:none;stroke-opacity:1"
         d="M 60.809738,124.83891 H 82.594425 V 146.6236 H 60.809738 Z" />
      <path
         id="rect927-0"
         style="opacity:0.5;fill:#000000;stroke:#000000;stroke-width:2.02781;stroke-miterlimit:4;stroke-dasharray:none;stroke-opacity:1"
         d="m 225.01392,149.18057 h 21.78468 v 21.78469 h -21.78468 z" />
      <path
         id="rect927-0-0"
         style="opacity:0.5;fill:#000000;stroke:#000000;stroke-width:2.02781;stroke-miterlimit:4;stroke-dasharray:none;stroke-opacity:1"
         d="m 224.76726,124.83891 h 21.78468 v 21.78469 h -21.78468 z" />
      <path
         id="path870"
         style="opacity:0.5;fill:#000000;stroke:#000000;stroke-width:2.11667;stroke-miterlimit:4;stroke-dasharray:none;stroke-opacity:1"
         d="m 97.366667,111.91875 v 4.49792 h 33.902803 13.76401 v 0 c 8.77674,1.74279 19.07349,8.86207 19.31769,15.88595 -5e-5,0.0322 -2.3e-4,0.0644 -5.3e-4,0.0966 l 5.3e-4,-0.0966 -5.3e-4,0.0966 0.22247,30.05495 h 4.85664 l 0.0203,-30.05493 h -5.3e-4 c 2.6e-4,-0.0322 5.3e-4,-0.0644 5.3e-4,-0.0966 -2.6e-4,-11.00027 -9.80198,-20.01017 -22.13301,-20.34501 v -0.01 h -0.69505 z"
         sodipodi:nodetypes="cccccccccccccccccc" />
      <path
         sodipodi:nodetypes="ccccccccccccccccccc"
         d="m 97.366667,119.0625 v 4.90055 l 29.452053,0.11678 h 12.58885 2.08862 v -0.0426 c 10.47832,0.11811 15.90259,4.52067 15.57973,13.25905 -5e-5,0.0283 -2.2e-4,0.0565 -5.3e-4,0.0848 l 5.3e-4,-0.0848 -5.3e-4,0.0848 0.20348,25.07309 h 4.44198 l 0.0186,-25.07305 h -5.2e-4 c 2.3e-4,-0.0282 5.2e-4,-0.0565 5.2e-4,-0.0848 -0.16173,-13.3599 -10.26494,-17.70775 -20.87896,-18.23382 v 0 0 z"
         style="opacity:0.5;fill:#000000;stroke:#000000;stroke-width:2.11667;stroke-miterlimit:4;stroke-dasharray:none;stroke-opacity:1"
         id="path870-7-3-2" />
      <path
         id="rect2178"
         style="opacity:0.25;fill:#000000;stroke:#000000;stroke-width:2.11667;stroke-linejoin:round;stroke-opacity:0;paint-order:stroke fill markers"
         d="M 95.794472,110.13704 H 210.11819 c 6.64799,0 11.99999,5.352 11.99999,11.99999 v 54.44082 c 0,6.648 -5.352,11.99999 -11.99999,11.99999 H 95.794472 c -6.647996,0 -11.999993,-5.35199 -11.999993,-11.99999 v -54.44082 c 0,-6.64799 5.351997,-11.99999 11.999993,-11.99999 z" />
    </g>
    <path
       id="rect847-1"
       style="opacity:0.5;fill:#000000;stroke:none;stroke-width:1.73076;stroke-linecap:round;stroke-linejoin:round;stroke-miterlimit:4;stroke-dasharray:none;stroke-opacity:1"
       d="m 260.98251,209.75912 -66.68068,80.57958 c -1.82232,2.20216 -5.42411,3.11542 -8.07548,2.04742 L 26.838172,228.24942 24.3391,223.53033 c -1.822328,2.20216 2.844366,11.5602 5.495737,12.62821 l 157.979013,63.63591 c 2.65137,1.068 6.25316,0.15474 8.07548,-2.04742 l 67.59225,-81.68132 c 1.82234,-2.20217 2.26896,-9.47192 -0.3824,-10.53992 z"
       sodipodi:nodetypes="ccccccccccc" />
    <rect
       style="opacity:1;fill:#000000;stroke:none;stroke-width:2.04193;stroke-linejoin:round;stroke-miterlimit:4;stroke-dasharray:none;stroke-opacity:0;paint-order:stroke fill markers"
       id="rect2597"
       width="174.81091"
       height="125.00336"
       x="110.52945"
       y="-30.107002"
       ry="0.97136223"
       transform="matrix(0.9237846,0.38291254,0,1,0,0)" />
    <path
       d="m 106.82792,10.968621 c -0.32228,0.01348 -0.54777,0.264575 -0.54777,0.668177 l -4.17475,0.579312 157.47392,67.916761 c 0.49713,0.20606 0.8971,0.805452 0.8971,1.343586 l 3.11661,122.680303 3.27784,-1.92233 c 0.4642,-0.27223 0.89709,-0.0613 0.89709,-0.59945 V 78.574308 c 0,-0.538136 -0.39997,-1.137531 -0.89709,-1.343586 L 107.17777,11.037351 c -0.12428,-0.05151 -0.24242,-0.07322 -0.34985,-0.06873 z"
       style="opacity:0.6;fill:#000000;stroke:none;stroke-width:1.96258;stroke-linejoin:round;stroke-miterlimit:4;stroke-dasharray:none;stroke-opacity:0;paint-order:stroke fill markers"
       id="rect2597-3"
       sodipodi:nodetypes="ssccscsssccs" />
    <rect
       transform="matrix(0.93019308,0.36707062,0,1,0,0)"
       ry="0.85903126"
       y="-19.242912"
       x="115.9376"
       height="110.54763"
       width="161.2673"
       id="rect2597-2"
       style="opacity:0.25;fill:#ffffff;stroke:none;stroke-width:1.84435;stroke-linejoin:round;stroke-miterlimit:4;stroke-dasharray:none;stroke-opacity:0;paint-order:stroke fill markers" />
  </g>
</svg>
