<?xml version="1.0" encoding="UTF-8" standalone="no"?>
<svg
   xmlns:dc="http://purl.org/dc/elements/1.1/"
   xmlns:cc="http://creativecommons.org/ns#"
   xmlns:rdf="http://www.w3.org/1999/02/22-rdf-syntax-ns#"
   xmlns:svg="http://www.w3.org/2000/svg"
   xmlns="http://www.w3.org/2000/svg"
   xmlns:xlink="http://www.w3.org/1999/xlink"
   xmlns:sodipodi="http://sodipodi.sourceforge.net/DTD/sodipodi-0.dtd"
   xmlns:inkscape="http://www.inkscape.org/namespaces/inkscape"
   sodipodi:docname="framework7.svg"
   inkscape:version="1.0 (4035a4f, 2020-05-01)"
   id="svg8"
   version="1.1"
   viewBox="0 0 317.49999 317.50001"
   height="1200"
   width="1200">
  <defs
     id="defs2">
    <linearGradient
       inkscape:collect="always"
       id="linearGradient2112">
      <stop
         style="stop-color:#ffffff;stop-opacity:1;"
         offset="0"
         id="stop2108" />
      <stop
         style="stop-color:#ffffff;stop-opacity:0;"
         offset="1"
         id="stop2110" />
    </linearGradient>
    <linearGradient
       inkscape:collect="always"
       xlink:href="#linearGradient2112"
       id="linearGradient2114"
       x1="90.224113"
       y1="137.2348"
       x2="89.408447"
       y2="140.58199"
       gradientUnits="userSpaceOnUse"
       gradientTransform="translate(-1.8680429,2.0911889)" />
  </defs>
  <sodipodi:namedview
     inkscape:window-maximized="1"
     inkscape:window-y="25"
     inkscape:window-x="0"
     inkscape:window-height="795"
     inkscape:window-width="1440"
     showguides="true"
     units="px"
     showgrid="false"
     inkscape:document-rotation="0"
     inkscape:current-layer="layer1"
     inkscape:document-units="px"
     inkscape:cy="426.2727"
     inkscape:cx="796.47906"
     inkscape:zoom="0.48283627"
     inkscape:pageshadow="2"
     inkscape:pageopacity="0.0"
     borderopacity="1.0"
     bordercolor="#666666"
     pagecolor="#ffffff"
     id="base" />
  <metadata
     id="metadata5">
    <rdf:RDF>
      <cc:Work
         rdf:about="">
        <dc:format>image/svg+xml</dc:format>
        <dc:type
           rdf:resource="http://purl.org/dc/dcmitype/StillImage" />
        <dc:title />
      </cc:Work>
    </rdf:RDF>
  </metadata>
  <g
     id="layer1"
     inkscape:groupmode="layer"
     inkscape:label="Layer 1">
    <path
       style="fill:#000000;stroke:none;stroke-width:0.26458300000000001px;stroke-linecap:butt;stroke-linejoin:miter;stroke-opacity:1;opacity:0.4"
       d="M 66.984387,173.82024 166.61306,218.75913 259.03455,126.33764 158.13402,83.942459 65.28858,172.97234 Z"
       id="path2021" />
    <path
       style="fill:#ffffff;stroke:none;stroke-width:0.26458300000000001px;stroke-linecap:butt;stroke-linejoin:miter;stroke-opacity:1;opacity:0.8"
       d="m 65.28858,172.97234 12.2946,5.51137 91.14964,-90.301735 -10.5988,-4.239516 z"
       id="path2023" />
    <path
       style="fill:#000000;stroke:none;stroke-width:0.26458300000000001px;stroke-linecap:butt;stroke-linejoin:miter;stroke-opacity:1;opacity:0.5"
       d="m 166.61306,218.75913 9.32694,21.19759 92.4215,-92.84544 -9.32695,-20.77364 z"
       id="path2025" />
    <path
       style="fill:#000000;stroke:#000000;stroke-width:0.26458300000000001px;stroke-linecap:butt;stroke-linejoin:miter;stroke-opacity:1;opacity:0.1"
       d="m 175.94,239.95672 -9.32694,-21.19759 -101.32448,-45.78679 9.75089,19.92573 z"
       id="path2027" />
    <path
       style="opacity:0.2;fill:none;stroke:#000000;stroke-width:2.09413;stroke-linecap:round;stroke-linejoin:round;stroke-miterlimit:4;stroke-dasharray:none;stroke-opacity:1"
       d="M 170.43971,228.09723 70.480471,182.71207 Z"
       id="path2029" />
    <path
       id="rect2041"
       style="opacity:0.5;fill:#000000;stroke:none;stroke-width:1.4168;stroke-linecap:round;stroke-linejoin:round;stroke-miterlimit:4;stroke-dasharray:none;stroke-opacity:0;paint-order:stroke fill markers"
       d="m 94.662022,19.053332 a 6.3499999,6.3499999 0 0 0 -6.294189,6.35 6.3499999,6.3499999 0 0 0 6.35,6.35 6.3499999,6.3499999 0 0 0 0.05581,0 H 123.822 a 6.3499999,6.3499999 0 0 0 6.35,-6.35 6.3499999,6.3499999 0 0 0 -6.35,-6.35 h -0.0558 -29.048357 a 6.3499999,6.3499999 0 0 0 -0.05581,0 z" />
    <path
       d="m 208.76418,187.41377 a 2.8261016,7.2275107 30.750354 0 0 -4.38323,8.97736 2.8261016,7.2275107 30.750354 0 0 4.4221,0.22195 2.8261016,7.2275107 30.750354 0 0 0.0389,-0.0387 L 229.071,176.46016 a 2.8261016,7.2275107 30.750354 0 0 4.4221,-9.01601 2.8261016,7.2275107 30.750354 0 0 -4.4221,-0.22195 l -0.0389,0.0387 -20.2291,20.11429 a 2.8261016,7.2275107 30.750354 0 0 -0.0389,0.0387 z"
       style="opacity:0.5;fill:#000000;stroke:none;stroke-width:1.00838;stroke-linecap:round;stroke-linejoin:round;stroke-miterlimit:4;stroke-dasharray:none;stroke-opacity:0;paint-order:stroke fill markers"
       id="rect2041-1" />
    <path
       id="rect2041-1-3"
       style="opacity:0.2;fill:#000000;stroke:none;stroke-width:3.8112;stroke-linecap:round;stroke-linejoin:round;stroke-miterlimit:4;stroke-dasharray:none;stroke-opacity:0;paint-order:stroke fill markers"
       d="M 405.50391 414.6875 L 404.22656 416.26953 A 10.681329 27.316576 30.750354 0 0 396.07617 422.15625 L 395.92969 422.30273 L 319.47266 498.32617 A 10.681329 27.316576 30.750354 0 0 319.32617 498.47266 A 10.681329 27.316576 30.750354 0 0 302.75977 532.40234 A 10.681329 27.316576 30.750354 0 0 307.17969 539.83203 L 350.40039 557.39062 L 464.8457 443.65234 L 411.55664 417.64258 A 10.681329 27.316576 30.750354 0 0 407.2207 415.52539 L 405.50391 414.6875 z "
       transform="scale(0.26458333)" />
    <path
       style="opacity:0.4;fill:none;stroke:url(#linearGradient2114);stroke-width:6.35;stroke-linecap:butt;stroke-linejoin:miter;stroke-miterlimit:4;stroke-dasharray:none;stroke-opacity:1"
       d="m 95.200479,144.45836 -15.397075,-5.8018"
       id="path2106" />
    <rect
       y="11.92582"
       x="153.63264"
       height="19.64253"
       width="48.404808"
       id="rect8469"
       style="fill:#000000;stroke-width:6.35;stroke-linecap:round;stroke-linejoin:round;stroke-opacity:0;paint-order:stroke fill markers;opacity:0.5" />
    <path
       sodipodi:nodetypes="ccccccc"
       style="opacity:0.5;stroke-width:0.117781"
       d="m 221.61904,25.4 5.548,5.136386 h 31.11689 L 263.83193,25.4 v -8.934617 h -42.21289 z"
       id="path8488" />
  </g>
</svg>
